<svg version="1.1" id="Layer_1" xmlns="http://www.w3.org/2000/svg" xmlns:xlink="http://www.w3.org/1999/xlink" x="0px" y="0px"
	 width="100%" viewBox="0 0 500 500" enable-background="new 0 0 500 500" xml:space="preserve">
<path fill="#000000" opacity="1.000000" stroke="none" 
	d="
M342.000000,501.000000 
	C228.000031,501.000000 114.500053,501.000000 1.000061,501.000000 
	C1.000041,334.333405 1.000041,167.666794 1.000020,1.000150 
	C167.666565,1.000100 334.333130,1.000100 500.999756,1.000050 
	C500.999847,167.666519 500.999847,334.333038 500.999939,500.999786 
	C448.166656,501.000000 395.333344,501.000000 342.000000,501.000000 
M132.195602,477.970398 
	C135.893417,476.411499 139.588837,474.846832 143.289459,473.294556 
	C166.671158,463.486572 183.130386,446.647614 193.677063,423.770721 
	C203.036743,403.468536 204.639786,382.216614 199.838989,360.742218 
	C194.817276,338.279663 182.883118,319.875000 164.399506,305.698639 
	C150.092026,294.725189 134.431427,287.620544 116.393532,285.880646 
	C115.189392,285.764496 113.216949,284.190155 113.157471,283.200531 
	C112.835983,277.851410 113.005127,272.472778 113.005127,266.504730 
	C198.784515,309.393677 283.713165,351.857239 368.704376,394.352081 
	C364.850891,405.873779 363.501801,417.670380 366.304138,429.405609 
	C369.696533,443.611664 376.512360,455.971588 388.016083,465.613342 
	C406.179077,480.836578 426.603821,484.886292 449.230591,478.983704 
	C463.823273,475.176971 475.095612,466.460785 483.973511,454.502747 
	C496.460938,437.682861 498.848938,418.933929 494.477722,398.884247 
	C493.964935,396.532288 493.475922,393.800934 494.167969,391.624451 
	C497.408478,381.432617 497.110229,371.214020 494.966980,360.976410 
	C491.099274,342.501495 480.657349,328.765869 464.639465,318.903900 
	C451.874298,311.044556 438.256470,308.270874 423.423004,309.939575 
	C406.414398,311.852997 392.326630,318.995544 381.381958,332.161469 
	C378.194489,335.995880 375.288208,340.064056 372.195618,344.099976 
	C356.448303,336.224426 340.779053,328.387939 325.000092,320.496582 
	C325.000092,309.962219 325.048553,299.467865 324.965912,288.974609 
	C324.945343,286.360260 325.619537,285.146271 328.556458,284.922455 
	C338.174622,284.189514 345.050873,278.380249 347.621613,269.905426 
	C349.985565,262.112274 349.861237,253.391861 349.751343,245.094269 
	C349.697144,241.001984 347.917480,236.064896 342.166504,236.044540 
	C314.334747,235.946014 286.502441,235.971893 258.670471,236.029617 
	C254.301514,236.038681 251.442383,238.596298 251.088608,242.801346 
	C250.174301,253.669144 253.681351,263.066681 260.813446,271.419220 
	C270.193848,282.404785 282.600098,285.457397 296.141205,285.976959 
	C300.054810,286.127106 303.979065,286.000000 307.693909,286.000000 
	C307.693909,294.741516 307.693909,302.803741 307.693909,311.456116 
	C305.773590,310.641449 304.290344,310.104462 302.888611,309.404266 
	C244.271454,280.124756 185.661835,250.830139 127.050308,221.539322 
	C122.438744,219.234726 115.932114,218.065567 113.719780,214.341080 
	C111.363708,210.374603 113.036194,203.996246 113.008202,198.670639 
	C112.973831,192.133118 113.000000,185.595261 113.000000,178.573059 
	C122.559349,181.927338 131.005997,180.973846 138.489609,175.716187 
	C144.611572,171.415146 150.105637,166.228363 155.981812,161.564957 
	C157.933044,160.016434 160.206451,158.873871 162.332550,157.545700 
	C162.759369,158.029953 163.186172,158.514191 163.612991,158.998428 
	C160.924286,163.303619 158.312485,167.659271 155.528595,171.902008 
	C151.482178,178.068924 151.360336,181.752060 157.015656,186.322113 
	C167.216309,194.565262 177.779022,202.384674 188.478409,209.975250 
	C193.264862,213.370941 197.832733,212.718048 200.268402,209.193420 
	C205.960587,200.956390 211.588181,192.672531 217.102524,184.315643 
	C220.712769,178.844391 218.276535,173.728333 214.126114,170.980667 
	C199.340454,161.192230 184.657501,151.248810 169.899139,141.418915 
	C161.703705,135.960297 158.820053,136.788742 151.469711,142.946762 
	C143.750000,149.414246 135.764633,155.571411 127.769363,161.699814 
	C124.676384,164.070587 119.178459,163.355652 117.129372,160.570557 
	C114.840126,157.459091 112.983192,153.991211 110.450233,151.106888 
	C107.129524,147.325546 107.699226,143.961243 110.265266,140.183395 
	C117.056267,130.185303 123.717339,120.099022 130.449677,110.060951 
	C132.571411,106.897385 140.938171,105.589043 143.919006,108.073891 
	C144.597076,108.639122 144.925232,109.939522 144.952759,110.914566 
	C145.065598,114.911201 145.044067,118.913506 144.987564,122.912521 
	C144.931732,126.864174 147.438599,129.164520 150.668411,129.893784 
	C163.560196,132.804596 176.510284,135.483444 189.498474,137.931473 
	C197.849319,139.505417 200.300827,137.707748 203.011108,129.425049 
	C205.304520,122.416306 207.700699,115.441185 209.993591,108.432274 
	C211.925064,102.528114 208.567383,97.600319 202.289322,96.996803 
	C198.879669,96.669029 195.467209,96.360588 192.065262,95.964081 
	C180.895950,94.662277 169.727158,93.354637 158.565491,91.989265 
	C151.135422,91.080368 143.664139,90.364365 136.308945,89.025597 
	C127.979355,87.509491 123.793488,89.102432 118.760277,96.640137 
	C111.236954,107.907043 103.614967,119.108368 96.136002,130.404480 
	C91.158127,137.922974 89.241455,145.729614 92.786201,154.705017 
	C94.461662,158.947327 94.864510,163.902664 94.907333,168.543594 
	C95.113380,190.874023 94.999992,213.207397 95.000000,235.539734 
	C95.000000,244.378647 94.997520,244.347397 86.413361,245.031509 
	C84.982529,245.145538 83.600334,245.786346 82.168129,245.979294 
	C61.529961,248.759415 42.712505,256.354401 25.615404,268.039459 
	C18.419363,272.957611 11.889717,278.850800 4.675992,284.604736 
	C8.297361,288.086121 11.505980,291.504059 15.116490,294.425293 
	C16.115637,295.233734 18.965910,295.281860 19.856758,294.466278 
	C32.298748,283.075439 46.450157,274.381012 62.158360,268.537140 
	C72.531364,264.678131 83.313141,261.689728 95.000000,262.037598 
	C95.000000,268.414124 94.712166,274.399323 95.094414,280.341370 
	C95.381271,284.800568 93.595062,286.324860 89.478493,286.010437 
	C88.650887,285.947205 87.788048,285.890015 86.983467,286.046326 
	C62.728996,290.757965 42.488773,302.572479 26.990595,321.692657 
	C7.923265,345.216187 2.093343,372.766083 7.307055,401.999084 
	C11.587836,426.001251 24.111385,445.964752 43.638779,461.152802 
	C61.382469,474.953552 81.720345,481.602509 103.917061,481.767792 
	C113.052681,481.835846 122.207466,479.332123 132.195602,477.970398 
z"/>
<path fill="#FFFFFF" opacity="1.000000" stroke="none" 
	d="
M131.774567,477.984314 
	C122.207466,479.332123 113.052681,481.835846 103.917061,481.767792 
	C81.720345,481.602509 61.382469,474.953552 43.638779,461.152802 
	C24.111385,445.964752 11.587836,426.001251 7.307055,401.999084 
	C2.093343,372.766083 7.923265,345.216187 26.990595,321.692657 
	C42.488773,302.572479 62.728996,290.757965 86.983467,286.046326 
	C87.788048,285.890015 88.650887,285.947205 89.478493,286.010437 
	C93.595062,286.324860 95.381271,284.800568 95.094414,280.341370 
	C94.712166,274.399323 95.000000,268.414124 95.000000,262.037598 
	C83.313141,261.689728 72.531364,264.678131 62.158360,268.537140 
	C46.450157,274.381012 32.298748,283.075439 19.856758,294.466278 
	C18.965910,295.281860 16.115637,295.233734 15.116490,294.425293 
	C11.505980,291.504059 8.297361,288.086121 4.675992,284.604736 
	C11.889717,278.850800 18.419363,272.957611 25.615404,268.039459 
	C42.712505,256.354401 61.529961,248.759415 82.168129,245.979294 
	C83.600334,245.786346 84.982529,245.145538 86.413361,245.031509 
	C94.997520,244.347397 95.000000,244.378647 95.000000,235.539734 
	C94.999992,213.207397 95.113380,190.874023 94.907333,168.543594 
	C94.864510,163.902664 94.461662,158.947327 92.786201,154.705017 
	C89.241455,145.729614 91.158127,137.922974 96.136002,130.404480 
	C103.614967,119.108368 111.236954,107.907043 118.760277,96.640137 
	C123.793488,89.102432 127.979355,87.509491 136.308945,89.025597 
	C143.664139,90.364365 151.135422,91.080368 158.565491,91.989265 
	C169.727158,93.354637 180.895950,94.662277 192.065262,95.964081 
	C195.467209,96.360588 198.879669,96.669029 202.289322,96.996803 
	C208.567383,97.600319 211.925064,102.528114 209.993591,108.432274 
	C207.700699,115.441185 205.304520,122.416306 203.011108,129.425049 
	C200.300827,137.707748 197.849319,139.505417 189.498474,137.931473 
	C176.510284,135.483444 163.560196,132.804596 150.668411,129.893784 
	C147.438599,129.164520 144.931732,126.864174 144.987564,122.912521 
	C145.044067,118.913506 145.065598,114.911201 144.952759,110.914566 
	C144.925232,109.939522 144.597076,108.639122 143.919006,108.073891 
	C140.938171,105.589043 132.571411,106.897385 130.449677,110.060951 
	C123.717339,120.099022 117.056267,130.185303 110.265266,140.183395 
	C107.699226,143.961243 107.129524,147.325546 110.450233,151.106888 
	C112.983192,153.991211 114.840126,157.459091 117.129372,160.570557 
	C119.178459,163.355652 124.676384,164.070587 127.769363,161.699814 
	C135.764633,155.571411 143.750000,149.414246 151.469711,142.946762 
	C158.820053,136.788742 161.703705,135.960297 169.899139,141.418915 
	C184.657501,151.248810 199.340454,161.192230 214.126114,170.980667 
	C218.276535,173.728333 220.712769,178.844391 217.102524,184.315643 
	C211.588181,192.672531 205.960587,200.956390 200.268402,209.193420 
	C197.832733,212.718048 193.264862,213.370941 188.478409,209.975250 
	C177.779022,202.384674 167.216309,194.565262 157.015656,186.322113 
	C151.360336,181.752060 151.482178,178.068924 155.528595,171.902008 
	C158.312485,167.659271 160.924286,163.303619 163.612991,158.998428 
	C163.186172,158.514191 162.759369,158.029953 162.332550,157.545700 
	C160.206451,158.873871 157.933044,160.016434 155.981812,161.564957 
	C150.105637,166.228363 144.611572,171.415146 138.489609,175.716187 
	C131.005997,180.973846 122.559349,181.927338 113.000000,178.573059 
	C113.000000,185.595261 112.973831,192.133118 113.008202,198.670639 
	C113.036194,203.996246 111.363708,210.374603 113.719780,214.341080 
	C115.932114,218.065567 122.438744,219.234726 127.050308,221.539322 
	C185.661835,250.830139 244.271454,280.124756 302.888611,309.404266 
	C304.290344,310.104462 305.773590,310.641449 307.693909,311.456116 
	C307.693909,302.803741 307.693909,294.741516 307.693909,286.000000 
	C303.979065,286.000000 300.054810,286.127106 296.141205,285.976959 
	C282.600098,285.457397 270.193848,282.404785 260.813446,271.419220 
	C253.681351,263.066681 250.174301,253.669144 251.088608,242.801346 
	C251.442383,238.596298 254.301514,236.038681 258.670471,236.029617 
	C286.502441,235.971893 314.334747,235.946014 342.166504,236.044540 
	C347.917480,236.064896 349.697144,241.001984 349.751343,245.094269 
	C349.861237,253.391861 349.985565,262.112274 347.621613,269.905426 
	C345.050873,278.380249 338.174622,284.189514 328.556458,284.922455 
	C325.619537,285.146271 324.945343,286.360260 324.965912,288.974609 
	C325.048553,299.467865 325.000092,309.962219 325.000092,320.496582 
	C340.779053,328.387939 356.448303,336.224426 372.195618,344.099976 
	C375.288208,340.064056 378.194489,335.995880 381.381958,332.161469 
	C392.326630,318.995544 406.414398,311.852997 423.423004,309.939575 
	C438.256470,308.270874 451.874298,311.044556 464.639465,318.903900 
	C480.657349,328.765869 491.099274,342.501495 494.966980,360.976410 
	C497.110229,371.214020 497.408478,381.432617 494.167969,391.624451 
	C493.475922,393.800934 493.964935,396.532288 494.477722,398.884247 
	C498.848938,418.933929 496.460938,437.682861 483.973511,454.502747 
	C475.095612,466.460785 463.823273,475.176971 449.230591,478.983704 
	C426.603821,484.886292 406.179077,480.836578 388.016083,465.613342 
	C376.512360,455.971588 369.696533,443.611664 366.304138,429.405609 
	C363.501801,417.670380 364.850891,405.873779 368.704376,394.352081 
	C283.713165,351.857239 198.784515,309.393677 113.005127,266.504730 
	C113.005127,272.472778 112.835983,277.851410 113.157471,283.200531 
	C113.216949,284.190155 115.189392,285.764496 116.393532,285.880646 
	C134.431427,287.620544 150.092026,294.725189 164.399506,305.698639 
	C182.883118,319.875000 194.817276,338.279663 199.838989,360.742218 
	C204.639786,382.216614 203.036743,403.468536 193.677063,423.770721 
	C183.130386,446.647614 166.671158,463.486572 143.289459,473.294556 
	C139.588837,474.846832 135.893417,476.411499 131.774567,477.984314 
M42.459248,435.973999 
	C46.822124,439.999908 50.932560,444.348267 55.591843,447.995514 
	C75.161034,463.314117 97.723183,468.133362 121.398651,462.536652 
	C152.780365,455.118195 173.706116,435.080688 182.499619,403.764496 
	C187.768753,384.999634 185.777313,366.510773 177.351028,348.694702 
	C169.858566,332.853058 158.480133,320.683929 143.372757,312.234100 
	C134.174240,307.089203 124.315361,303.102142 113.000526,302.932709 
	C113.000526,321.514343 112.950951,339.639435 113.115219,357.762573 
	C113.125847,358.935150 114.544998,360.485321 115.712952,361.194336 
	C124.017227,366.235504 128.884918,373.404205 128.929886,383.195709 
	C128.974442,392.891785 124.474472,400.203461 116.001839,405.050262 
	C114.878860,405.692688 113.186699,406.719727 113.140579,407.638031 
	C112.868958,413.046692 113.006912,418.475922 113.006912,424.271332 
	C118.741211,424.271332 123.818405,424.271332 128.663300,424.271332 
	C128.663300,430.082031 128.663300,435.489807 128.663300,440.666595 
	C111.922867,440.666595 95.520454,440.666595 79.335052,440.666595 
	C79.335052,434.919800 79.335052,429.510498 79.335052,423.723572 
	C84.746719,423.723572 89.824165,423.723572 94.908508,423.723572 
	C94.908508,417.675507 94.908508,412.025757 94.908508,406.416840 
	C83.772888,401.491089 79.453293,393.064575 79.105598,384.905975 
	C78.656517,374.368195 83.485260,366.452393 92.588425,360.989685 
	C93.854614,360.229889 94.871696,357.976471 94.896194,356.397308 
	C95.084839,344.238647 95.000000,332.075745 95.000000,319.914154 
	C95.000000,314.302917 95.000000,308.691681 95.000000,302.314178 
	C63.814945,307.357025 41.221394,323.281647 29.370190,351.686096 
	C16.909304,381.551880 21.448910,409.980988 42.459248,435.973999 
M405.419739,374.961334 
	C390.120758,384.448822 382.554047,398.531799 382.133484,416.194611 
	C381.860626,427.655304 386.634491,437.753174 393.386658,446.885773 
	C402.663177,459.432739 425.788330,467.895874 440.504456,463.738037 
	C452.199341,460.433807 462.555573,454.928040 469.926758,444.646973 
	C478.387939,432.845581 481.126373,419.723022 478.208191,405.859558 
	C474.727234,389.322327 464.713776,377.508301 448.936737,371.019257 
	C434.095367,364.915070 419.726471,366.011017 405.419739,374.961334 
M308.998474,345.497345 
	C331.430695,356.712860 353.862946,367.928375 376.248810,379.120728 
	C378.700500,375.858490 380.989594,372.812592 383.621246,369.310913 
	C293.331146,324.169128 203.570175,279.291901 113.213387,234.116760 
	C113.213387,239.287109 113.213387,243.399155 113.213387,247.592041 
	C123.789795,252.890778 134.421326,258.234741 145.068100,263.548126 
	C199.503159,290.714722 253.942139,317.873444 308.998474,345.497345 
M450.496552,330.953003 
	C423.363983,317.417572 393.015533,337.118042 389.095581,352.496643 
	C393.918060,354.729156 398.259338,358.730743 404.322113,355.940277 
	C415.486542,350.801697 427.026062,348.927887 439.377625,350.860565 
	C448.941895,352.357239 457.872711,355.050598 465.868500,360.443481 
	C470.241394,363.392822 474.297638,366.811584 479.246460,370.591309 
	C476.473785,351.968628 467.292328,339.085571 450.496552,330.953003 
M287.088593,267.984802 
	C297.574860,267.989868 308.061157,267.997406 318.547424,267.999390 
	C331.934479,268.001923 332.307953,267.615295 331.941101,254.093628 
	C331.933655,253.818497 331.660370,253.550568 331.575806,253.396942 
	C311.031799,253.396942 290.570496,253.396942 269.961639,253.396942 
	C272.780579,261.577209 279.122162,265.116211 287.088593,267.984802 
M174.982986,174.192429 
	C173.313644,175.741882 172.944672,177.200684 175.131531,178.672363 
	C176.600250,179.660751 177.944260,180.832336 179.384247,181.865952 
	C183.501724,184.821442 187.639694,187.748383 191.930893,190.801285 
	C193.379593,188.431763 194.112656,186.567841 195.405563,185.255493 
	C198.155960,182.463776 197.329773,180.661652 194.383820,178.823669 
	C190.982208,176.701401 187.650894,174.449951 184.416229,172.080978 
	C180.764236,169.406357 177.584137,168.840012 174.982986,174.192429 
M110.999908,381.757263 
	C109.387962,379.838959 108.122734,376.953674 106.084946,376.222961 
	C102.814644,375.050354 99.083382,375.758118 97.249847,379.478821 
	C95.748276,382.525848 95.580315,385.590881 98.585167,388.123566 
	C100.853546,390.035522 102.829048,391.803192 106.312286,390.386047 
	C110.078430,388.853882 111.491241,386.443695 110.999908,381.757263 
M167.626511,115.997238 
	C172.210312,116.919441 176.823715,117.716690 181.370850,118.793716 
	C187.877960,120.334999 188.636688,119.946846 190.090195,112.740463 
	C180.743576,111.723541 171.473083,110.714905 162.120270,109.697311 
	C162.120270,111.876999 162.120270,113.180252 162.120270,114.443787 
	C163.742432,114.976013 165.245392,115.469124 167.626511,115.997238 
z"/>
<path fill="#000000" opacity="1.000000" stroke="none" 
	d="
M42.213699,435.711853 
	C21.448910,409.980988 16.909304,381.551880 29.370190,351.686096 
	C41.221394,323.281647 63.814945,307.357025 95.000000,302.314178 
	C95.000000,308.691681 95.000000,314.302917 95.000000,319.914154 
	C95.000000,332.075745 95.084839,344.238647 94.896194,356.397308 
	C94.871696,357.976471 93.854614,360.229889 92.588425,360.989685 
	C83.485260,366.452393 78.656517,374.368195 79.105598,384.905975 
	C79.453293,393.064575 83.772888,401.491089 94.908508,406.416840 
	C94.908508,412.025757 94.908508,417.675507 94.908508,423.723572 
	C89.824165,423.723572 84.746719,423.723572 79.335052,423.723572 
	C79.335052,429.510498 79.335052,434.919800 79.335052,440.666595 
	C95.520454,440.666595 111.922867,440.666595 128.663300,440.666595 
	C128.663300,435.489807 128.663300,430.082031 128.663300,424.271332 
	C123.818405,424.271332 118.741211,424.271332 113.006912,424.271332 
	C113.006912,418.475922 112.868958,413.046692 113.140579,407.638031 
	C113.186699,406.719727 114.878860,405.692688 116.001839,405.050262 
	C124.474472,400.203461 128.974442,392.891785 128.929886,383.195709 
	C128.884918,373.404205 124.017227,366.235504 115.712952,361.194336 
	C114.544998,360.485321 113.125847,358.935150 113.115219,357.762573 
	C112.950951,339.639435 113.000526,321.514343 113.000526,302.932709 
	C124.315361,303.102142 134.174240,307.089203 143.372757,312.234100 
	C158.480133,320.683929 169.858566,332.853058 177.351028,348.694702 
	C185.777313,366.510773 187.768753,384.999634 182.499619,403.764496 
	C173.706116,435.080688 152.780365,455.118195 121.398651,462.536652 
	C97.723183,468.133362 75.161034,463.314117 55.591843,447.995514 
	C50.932560,444.348267 46.822124,439.999908 42.213699,435.711853 
z"/>
<path fill="#000000" opacity="1.000000" stroke="none" 
	d="
M405.713287,374.722015 
	C419.726471,366.011017 434.095367,364.915070 448.936737,371.019257 
	C464.713776,377.508301 474.727234,389.322327 478.208191,405.859558 
	C481.126373,419.723022 478.387939,432.845581 469.926758,444.646973 
	C462.555573,454.928040 452.199341,460.433807 440.504456,463.738037 
	C425.788330,467.895874 402.663177,459.432739 393.386658,446.885773 
	C386.634491,437.753174 381.860626,427.655304 382.133484,416.194611 
	C382.554047,398.531799 390.120758,384.448822 405.713287,374.722015 
M439.942200,424.268829 
	C439.942200,418.646240 439.942200,413.023651 439.942200,407.204346 
	C433.878296,407.204346 428.140442,407.204346 422.201111,407.204346 
	C422.201111,413.128418 422.201111,418.866272 422.201111,424.943634 
	C428.010254,424.943634 433.631409,424.943634 439.942200,424.268829 
z"/>
<path fill="#000000" opacity="1.000000" stroke="none" 
	d="
M308.689117,345.266113 
	C253.942139,317.873444 199.503159,290.714722 145.068100,263.548126 
	C134.421326,258.234741 123.789795,252.890778 113.213387,247.592041 
	C113.213387,243.399155 113.213387,239.287109 113.213387,234.116760 
	C203.570175,279.291901 293.331146,324.169128 383.621246,369.310913 
	C380.989594,372.812592 378.700500,375.858490 376.248810,379.120728 
	C353.862946,367.928375 331.430695,356.712860 308.689117,345.266113 
z"/>
<path fill="#000000" opacity="1.000000" stroke="none" 
	d="
M450.887512,330.989746 
	C467.292328,339.085571 476.473785,351.968628 479.246460,370.591309 
	C474.297638,366.811584 470.241394,363.392822 465.868500,360.443481 
	C457.872711,355.050598 448.941895,352.357239 439.377625,350.860565 
	C427.026062,348.927887 415.486542,350.801697 404.322113,355.940277 
	C398.259338,358.730743 393.918060,354.729156 389.095581,352.496643 
	C393.015533,337.118042 423.363983,317.417572 450.887512,330.989746 
z"/>
<path fill="#000000" opacity="1.000000" stroke="none" 
	d="
M286.663635,267.872742 
	C279.122162,265.116211 272.780579,261.577209 269.961639,253.396942 
	C290.570496,253.396942 311.031799,253.396942 331.575806,253.396942 
	C331.660370,253.550568 331.933655,253.818497 331.941101,254.093628 
	C332.307953,267.615295 331.934479,268.001923 318.547424,267.999390 
	C308.061157,267.997406 297.574860,267.989868 286.663635,267.872742 
z"/>
<path fill="#000000" opacity="1.000000" stroke="none" 
	d="
M175.027939,173.818665 
	C177.584137,168.840012 180.764236,169.406357 184.416229,172.080978 
	C187.650894,174.449951 190.982208,176.701401 194.383820,178.823669 
	C197.329773,180.661652 198.155960,182.463776 195.405563,185.255493 
	C194.112656,186.567841 193.379593,188.431763 191.930893,190.801285 
	C187.639694,187.748383 183.501724,184.821442 179.384247,181.865952 
	C177.944260,180.832336 176.600250,179.660751 175.131531,178.672363 
	C172.944672,177.200684 173.313644,175.741882 175.027939,173.818665 
z"/>
<path fill="#000000" opacity="1.000000" stroke="none" 
	d="
M110.999954,382.184570 
	C111.491241,386.443695 110.078430,388.853882 106.312286,390.386047 
	C102.829048,391.803192 100.853546,390.035522 98.585167,388.123566 
	C95.580315,385.590881 95.748276,382.525848 97.249847,379.478821 
	C99.083382,375.758118 102.814644,375.050354 106.084946,376.222961 
	C108.122734,376.953674 109.387962,379.838959 110.999954,382.184570 
z"/>
<path fill="#000000" opacity="1.000000" stroke="none" 
	d="
M167.187439,115.979736 
	C165.245392,115.469124 163.742432,114.976013 162.120270,114.443787 
	C162.120270,113.180252 162.120270,111.876999 162.120270,109.697311 
	C171.473083,110.714905 180.743576,111.723541 190.090195,112.740463 
	C188.636688,119.946846 187.877960,120.334999 181.370850,118.793716 
	C176.823715,117.716690 172.210312,116.919441 167.187439,115.979736 
z"/>
<path fill="#FFFFFF" opacity="1.000000" stroke="none" 
	d="
M439.597412,424.606232 
	C433.631409,424.943634 428.010254,424.943634 422.201111,424.943634 
	C422.201111,418.866272 422.201111,413.128418 422.201111,407.204346 
	C428.140442,407.204346 433.878296,407.204346 439.942200,407.204346 
	C439.942200,413.023651 439.942200,418.646240 439.597412,424.606232 
z"/>
</svg>