<svg version="1.1" id="Layer_1" xmlns="http://www.w3.org/2000/svg" xmlns:xlink="http://www.w3.org/1999/xlink" x="0px" y="0px"
	 width="100%" viewBox="0 0 500 500" enable-background="new 0 0 500 500" xml:space="preserve">
<path fill="#000000" opacity="1.000000" stroke="none" 
	d="
M271.000000,501.000000 
	C182.000015,501.000000 93.500008,500.974609 5.000195,501.095825 
	C1.576093,501.100494 0.903036,500.423828 0.905301,497.000000 
	C1.013778,333.000092 1.013756,169.000122 0.905337,5.000245 
	C0.903074,1.576941 1.575799,0.903021 4.999878,0.905286 
	C168.999756,1.013775 332.999725,1.013761 496.999634,0.905353 
	C500.422668,0.903090 501.096985,1.575432 501.094727,4.999759 
	C500.986206,168.999634 500.986237,332.999603 501.094604,496.999512 
	C501.096893,500.422272 500.425598,501.102081 497.000275,501.096283 
	C421.833679,500.970154 346.666809,501.000000 271.000000,501.000000 
z"/>
<path fill="#A20715" opacity="1.000000" stroke="none" 
	d="
M403.796814,273.374573 
	C421.226532,264.856659 438.826874,264.637115 456.290955,271.808502 
	C479.334137,281.270844 492.791016,298.909027 496.699524,323.317444 
	C497.939270,331.059387 498.316498,339.420868 495.775391,347.044556 
	C493.945770,352.533661 495.370605,357.374207 496.254913,362.419006 
	C502.561737,398.396301 479.420990,432.268738 443.486694,438.748810 
	C418.488129,443.256805 396.935760,435.230988 380.498169,415.757019 
	C371.407135,404.986694 365.972290,392.215240 366.032867,377.711761 
	C366.061768,370.790253 365.140198,363.767151 367.860626,357.052521 
	C369.268066,353.578583 367.862366,351.747498 364.476776,350.071075 
	C325.906677,330.972107 287.428497,311.687531 248.926468,292.451141 
	C205.093399,270.551178 161.262283,248.647293 117.423187,226.759399 
	C115.837708,225.967819 114.409332,224.627594 112.020935,225.121506 
	C112.020935,230.048096 112.064926,235.024048 111.999931,239.998566 
	C111.972778,242.076706 112.789238,242.789032 114.904640,243.034256 
	C138.053268,245.717560 158.069855,255.321548 174.237198,271.949738 
	C188.820038,286.948273 198.245926,304.884430 201.050247,325.962799 
	C204.957520,355.331177 198.255798,381.595581 179.049850,404.551971 
	C163.075104,423.646118 142.672699,435.012329 118.396004,438.786438 
	C90.642471,443.101074 65.184113,436.148315 42.912434,419.183472 
	C22.930014,403.962402 10.490454,383.393097 6.290680,358.744019 
	C1.376130,329.899811 7.497966,303.040955 25.853750,279.848145 
	C42.699982,258.562714 65.029747,246.412170 92.012718,243.035645 
	C94.050240,242.780670 95.020859,242.224640 94.999138,240.081390 
	C94.938339,234.083649 94.888412,228.082855 95.019943,222.087357 
	C95.084877,219.127670 93.396683,218.763901 91.182251,219.047882 
	C67.465164,222.089615 45.790329,230.116257 27.097731,245.391373 
	C25.310791,246.851608 23.501348,248.284317 21.408234,249.886154 
	C18.378334,251.700851 15.614498,252.130692 12.376451,250.168732 
	C10.070614,248.282211 8.185816,246.459427 6.233735,244.317383 
	C6.500451,243.544708 6.912943,243.132797 6.918764,242.237427 
	C7.023813,241.433197 7.157357,240.912506 7.522752,240.252853 
	C8.778008,239.518509 9.147775,238.465271 9.775956,237.192444 
	C9.947382,236.911896 9.967752,236.977615 9.934370,236.985931 
	C10.075708,236.851486 10.250429,236.708725 10.700074,236.368607 
	C30.781248,218.343750 54.159286,207.965881 80.161240,203.152649 
	C83.882568,202.463806 87.706657,202.177063 91.494522,202.054520 
	C94.014618,201.973007 95.029892,201.205933 95.023895,198.577698 
	C94.963387,172.082443 94.992668,145.586960 94.983299,119.091553 
	C94.982895,117.946228 94.904610,116.870926 94.245155,115.770142 
	C88.336853,105.907928 89.665329,96.208862 95.623901,87.023232 
	C103.701576,74.570839 112.225433,62.408302 120.343750,49.981529 
	C122.219498,47.110298 124.430771,45.988327 127.682800,45.977089 
	C137.469650,45.943272 147.075348,47.636013 156.745300,48.772015 
	C167.069901,49.984932 177.429367,50.898209 187.765625,52.016026 
	C193.332809,52.618088 198.920578,53.161995 204.429504,54.128574 
	C208.839767,54.902382 211.399612,60.662556 209.702713,66.332832 
	C207.340988,74.224701 204.674988,82.033600 201.881104,89.784973 
	C200.277359,94.234406 195.524445,96.115891 189.283951,94.870720 
	C176.702209,92.360275 164.146362,89.715996 151.602493,87.021507 
	C146.364044,85.896255 144.170670,83.091484 144.022659,77.673424 
	C143.927139,74.176460 143.910492,70.672905 144.009827,67.176605 
	C144.077255,64.802193 142.944473,64.391777 140.778717,63.901676 
	C134.472183,62.474545 130.864136,64.568008 127.643089,70.320885 
	C122.742104,79.074173 116.595573,87.128036 111.014404,95.503197 
	C106.791389,101.840309 106.888359,103.849945 111.484970,110.089714 
	C113.145790,112.344231 114.635979,114.739250 116.440582,116.869804 
	C119.768661,120.799019 124.229668,121.309006 128.262009,118.136948 
	C136.820343,111.404495 145.321198,104.596878 153.754501,97.708511 
	C157.693802,94.490875 162.841537,93.854050 167.036041,96.633347 
	C182.841583,107.106163 198.627472,117.608948 214.376801,128.166016 
	C219.085815,131.322571 220.287567,136.326447 217.244766,141.107788 
	C212.109161,149.177704 206.816101,157.154984 201.346542,165.002029 
	C197.981186,169.830215 192.065186,170.386734 187.357071,166.849136 
	C177.079742,159.126892 166.777023,151.438324 156.463867,143.763962 
	C152.100403,140.516953 151.042938,136.674515 153.737335,131.739990 
	C156.102966,127.407524 158.863129,123.289108 161.486237,119.099442 
	C162.281815,117.828773 164.368286,116.729469 162.545074,115.055962 
	C160.745514,113.404190 159.386597,115.703934 158.366013,116.450104 
	C153.043396,120.341644 147.745758,124.332695 142.885086,128.776566 
	C133.985306,136.913208 124.076485,139.868484 112.022514,135.601212 
	C112.022514,147.128815 112.079514,158.271500 111.985062,169.412888 
	C111.959335,172.446060 114.423256,172.685272 116.182426,173.566757 
	C163.097610,197.075211 210.038361,220.532593 256.978027,243.992203 
	C272.525543,251.762558 288.116486,259.447205 303.606323,267.330719 
	C306.877869,268.995758 308.253632,269.063934 308.057251,264.798950 
	C307.812225,259.477844 307.737915,254.119949 308.080688,248.809601 
	C308.367828,244.361649 307.109314,242.686035 302.354919,242.885925 
	C293.949768,243.239304 285.592896,243.268433 277.359894,240.264191 
	C261.153656,234.350418 249.751862,217.654495 251.013336,200.656097 
	C251.385666,195.638870 254.401352,193.022629 260.092407,193.014267 
	C282.255188,192.981689 304.419281,193.143906 326.580627,192.960693 
	C351.246429,192.756775 350.269287,192.270126 349.996094,216.746246 
	C349.936188,222.111969 348.840759,227.191711 345.423340,231.866440 
	C343.031616,233.591476 341.408112,235.705002 338.773254,237.099640 
	C337.041840,237.491501 336.002167,238.227737 335.251465,239.854858 
	C333.648529,242.855972 330.624603,242.491318 328.498108,242.737259 
	C325.131012,243.126724 324.959961,244.765533 324.978455,247.315628 
	C325.043427,256.284119 325.135956,265.256378 324.929199,274.220551 
	C324.859924,277.223969 326.096130,278.689148 328.587921,279.912262 
	C342.212311,286.599823 355.838623,293.288422 369.334991,300.228058 
	C372.496155,301.853455 373.677063,301.091064 375.435455,298.280487 
	C381.789398,288.124146 389.404602,279.193726 401.574158,274.939514 
	C402.948853,275.026367 403.239532,274.265198 403.796814,273.374573 
z"/>
<path fill="#A10715" opacity="1.000000" stroke="none" 
	d="
M12.113044,250.402908 
	C14.729632,250.078354 17.503855,250.051697 20.696095,250.033768 
	C16.683020,255.168564 16.683020,255.168564 12.113044,250.402908 
z"/>
<path fill="#A10715" opacity="1.000000" stroke="none" 
	d="
M337.667847,237.207581 
	C339.852356,235.013580 341.661469,232.968506 344.780945,232.143570 
	C344.272034,235.407059 341.717590,236.903809 338.353607,237.869141 
	C337.777222,237.694122 337.556458,237.554642 337.667847,237.207581 
z"/>
<path fill="#A20715" opacity="1.000000" stroke="none" 
	d="
M337.706909,237.130615 
	C338.000000,237.000000 337.999023,237.416809 337.998474,237.625214 
	C336.928589,238.225677 337.069550,239.919540 335.366272,240.046692 
	C335.457123,238.851486 336.148712,237.817978 337.706909,237.130615 
z"/>
<path fill="#A20715" opacity="1.000000" stroke="none" 
	d="
M403.719116,273.199707 
	C403.723541,273.996796 403.386597,274.769531 402.152313,274.887573 
	C402.443817,274.342468 402.940643,273.787567 403.719116,273.199707 
z"/>
<path fill="#A20615" opacity="1.000000" stroke="none" 
	d="
M9.653713,237.069244 
	C9.385009,237.827591 8.822640,238.743286 8.007438,239.886429 
	C7.982938,238.980850 8.382561,237.943069 9.653713,237.069244 
z"/>
<path fill="#A20715" opacity="1.000000" stroke="none" 
	d="
M6.640952,242.116608 
	C6.739088,242.543564 6.587902,243.133255 6.301585,243.860535 
	C6.241512,243.425201 6.316572,242.852280 6.640952,242.116608 
z"/>
<path fill="#A20615" opacity="1.000000" stroke="none" 
	d="
M10.728161,236.192139 
	C10.742780,236.361679 10.506351,236.546738 10.083349,236.860336 
	C9.987839,236.654617 10.181284,236.394211 10.728161,236.192139 
z"/>
<path fill="#000000" opacity="1.000000" stroke="none" 
	d="
M112.000427,266.198029 
	C111.235542,260.662689 112.907646,259.871124 118.016571,260.817688 
	C151.042191,266.936646 177.809540,292.479675 183.648544,326.198914 
	C189.387680,359.341431 177.961807,386.673615 150.859604,407.027893 
	C138.834183,416.059235 125.239349,420.574707 110.229179,422.155151 
	C74.536041,425.913391 39.579956,402.261505 27.718433,370.648010 
	C17.365704,343.055725 20.848598,317.291809 37.398491,293.552582 
	C50.448166,274.834106 69.240433,264.316284 91.636940,260.205353 
	C94.001427,259.771332 95.009666,260.529236 95.004105,262.994904 
	C94.965034,280.321808 94.943153,297.649048 95.041779,314.975494 
	C95.054901,317.279785 93.823181,318.109436 92.126266,318.976044 
	C78.243553,326.066071 76.060326,340.869812 81.334694,352.529694 
	C83.418564,357.136444 87.164452,360.621826 91.756104,362.817108 
	C94.199326,363.985260 95.248596,365.365204 95.053047,368.102448 
	C94.816200,371.417755 94.831177,374.772980 95.040154,378.091858 
	C95.237503,381.226013 93.902985,381.979645 90.963745,382.059113 
	C78.502754,382.396210 78.595688,382.482513 78.939743,394.976166 
	C79.021141,397.931946 79.812683,399.078552 82.920280,399.048859 
	C96.580719,398.918304 110.244202,398.899841 123.904045,399.058960 
	C127.317863,399.098724 128.015396,397.746368 128.061340,394.650940 
	C128.243256,382.391296 128.339355,382.277344 116.212173,382.071350 
	C112.952423,382.015961 111.575951,381.020203 111.992813,377.768860 
	C112.076859,377.113434 112.028648,376.436310 111.996376,375.771393 
	C111.693504,369.532166 111.906029,364.640259 118.682327,360.284119 
	C133.292435,350.891876 131.278946,326.385712 114.557800,318.895081 
	C112.043221,317.768677 111.973587,315.895172 111.979614,313.652313 
	C112.021690,297.991852 112.000900,282.331177 112.000427,266.198029 
z"/>
<path fill="#000000" opacity="1.000000" stroke="none" 
	d="
M417.728882,420.360413 
	C392.726105,413.268951 377.387024,386.407654 384.428955,361.308624 
	C392.091980,333.995819 419.621674,318.562805 446.069824,327.276855 
	C471.431244,335.632812 486.658844,361.266113 477.664795,389.087006 
	C469.784393,413.463196 443.877808,428.063354 417.728882,420.360413 
z"/>
<path fill="#000000" opacity="1.000000" stroke="none" 
	d="
M301.001282,299.000549 
	C239.207672,268.164246 177.771881,237.439224 116.336807,206.712784 
	C112.786659,204.937195 110.074295,195.966553 112.184944,192.654022 
	C113.235039,191.005951 114.464333,192.291214 115.535477,192.820908 
	C122.358955,196.195206 129.171356,199.592010 135.980576,202.995071 
	C216.818192,243.395752 297.655060,283.797974 378.490601,324.202789 
	C384.823761,327.368347 384.369080,327.038757 380.148438,332.618469 
	C377.096924,336.652527 374.862488,336.079926 371.016937,334.114990 
	C347.877289,322.291412 324.594269,310.748413 301.001282,299.000549 
z"/>
<path fill="#000000" opacity="1.000000" stroke="none" 
	d="
M456.204712,312.649811 
	C438.367188,305.971497 421.063599,306.230896 403.920593,313.882019 
	C400.633636,315.349060 392.102417,312.862762 389.851624,310.263580 
	C388.763367,309.006866 389.586456,308.300049 390.173248,307.259125 
	C400.363556,289.182648 424.490112,280.046021 444.523193,285.901398 
	C465.032013,291.895844 478.350372,310.011505 479.823914,329.006805 
	C472.705536,321.704987 465.185791,316.400421 456.204712,312.649811 
z"/>
<path fill="#000000" opacity="1.000000" stroke="none" 
	d="
M288.001923,210.000092 
	C301.790588,210.000992 315.082001,210.134079 328.367767,209.919327 
	C332.177521,209.857742 333.185944,211.117645 333.074493,214.768753 
	C332.836426,222.567429 329.663361,225.982666 321.907440,225.995285 
	C311.940521,226.011505 301.957550,226.348114 292.011414,225.893051 
	C283.153595,225.487778 275.932526,221.537643 271.275269,213.618546 
	C269.653625,210.861145 270.370148,209.860336 273.550140,209.966049 
	C278.196167,210.120514 282.851257,210.002151 288.001923,210.000092 
z"/>
<path fill="#000000" opacity="1.000000" stroke="none" 
	d="
M181.999878,141.000793 
	C179.958405,139.600006 178.317474,138.223175 176.542892,137.048218 
	C173.430328,134.987411 173.081055,133.136383 175.376831,129.750809 
	C177.781860,126.204124 179.295959,125.203995 182.905060,128.202194 
	C186.665115,131.325790 190.880096,133.962387 195.122055,136.422409 
	C197.635925,137.880280 197.765396,138.997421 196.240036,141.320923 
	C191.618484,148.360764 191.702393,148.427811 184.963867,143.383301 
	C184.040771,142.692276 183.212418,141.874680 181.999878,141.000793 
z"/>
<path fill="#000000" opacity="1.000000" stroke="none" 
	d="
M108.169327,334.751556 
	C111.653824,338.367706 112.040550,342.173767 109.426315,345.843658 
	C107.624321,348.373322 104.911621,349.451599 101.573708,348.312469 
	C97.237877,346.832825 94.969421,342.955933 96.220253,338.668640 
	C97.438660,334.492523 101.415520,332.556274 105.984177,333.916321 
	C106.616333,334.104523 107.246239,334.300262 108.169327,334.751556 
z"/>
<path fill="#000000" opacity="1.000000" stroke="none" 
	d="
M161.169189,67.789413 
	C167.381104,65.915230 173.336121,68.092209 179.366348,68.424835 
	C181.777481,68.557831 184.279510,68.798683 186.736481,69.028923 
	C188.468933,69.191261 190.437332,69.457512 189.429001,71.888474 
	C188.700134,73.645645 189.480972,77.007317 185.739716,76.301254 
	C178.148010,74.868538 170.573975,73.338593 162.968307,71.985512 
	C160.343872,71.518616 161.202164,69.677597 161.169189,67.789413 
z"/>
<path fill="#A20715" opacity="1.000000" stroke="none" 
	d="
M423.559326,382.207916 
	C423.110077,377.497101 423.124786,373.034027 422.985352,368.575806 
	C422.909607,366.153290 423.633698,364.728851 426.323151,365.015076 
	C426.486267,365.032471 426.653656,365.015930 426.818695,365.007904 
	C440.203217,364.357025 440.203217,364.356964 439.896667,381.495728 
	C434.579651,383.173889 429.250244,382.209015 423.559326,382.207916 
z"/>
<path fill="#800000" opacity="1.000000" stroke="none" 
	d="
M423.430847,382.269257 
	C428.415283,381.962433 433.670959,381.966736 439.383545,381.964478 
	C434.531464,383.992279 429.101379,382.886780 423.430847,382.269257 
z"/>
</svg>